<svg width="2442" height="2441" viewBox="0 0 2442 2441" fill="none" xmlns="http://www.w3.org/2000/svg">
<path fill-rule="evenodd" clip-rule="evenodd" d="M1051.68 890.882C948.862 648.109 1050.26 463.816 1141.03 298.858C1163.17 258.611 1184.68 219.514 1202.44 181C1324.89 532.619 1463.04 714.028 1571.46 856.386C1677.22 995.262 1754.68 1096.97 1761.65 1283.29C1776.66 1684.48 1499.17 1793.39 1403.92 1825.6C1495.55 1823.68 1585.4 1808.58 1667.35 1794.81C1758.29 1779.53 1839.5 1765.89 1902.57 1773.71C2164.21 1806.15 2273.05 1986.16 2370.46 2147.27C2394.23 2186.58 2417.32 2224.77 2441.78 2259.42C2076.07 2189.52 1849.88 2218.37 1672.38 2241.02C1499.22 2263.11 1372.4 2279.29 1207.59 2192.1C864.511 2010.61 894.734 1729.1 914.982 1621.51C870.639 1697.39 837.119 1777.87 806.442 1851.54C770.988 1936.67 739.331 2012.69 699.151 2061.92C532.465 2266.19 322.149 2262.56 133.898 2259.32C87.9671 2258.53 43.3497 2257.76 1 2260.03C254.773 1987.58 350.694 1780.71 425.967 1618.38C499.398 1460.01 553.179 1344.02 714.687 1250.87C1046.69 1059.39 1267.59 1228 1350.41 1303.89C1302.14 1222.61 1242.17 1150.01 1187.63 1083.99L1187.63 1083.99L1187.63 1083.99C1128.9 1012.89 1076.46 949.402 1051.68 890.882ZM920.908 1611.51C935.16 1634.38 987.405 1698.76 1078.43 1751.31C1181.32 1810.71 1291.99 1827.52 1400.31 1825.66C1411.43 1807.32 1444.66 1727.02 1444.62 1615.67C1444.58 1504.18 1408.63 1405.53 1358.09 1317.07C1330.42 1317.14 1248.74 1327.37 1156.63 1376.05C1050.65 1432.05 977.165 1517.84 920.908 1611.51Z" fill="url(#paint0_linear_97_2)"/>
<defs>
<linearGradient id="paint0_linear_97_2" x1="202.113" y1="511.945" x2="2819.09" y2="1195.28" gradientUnits="userSpaceOnUse">
<stop offset="0.0115393" stop-color="#F72585"/>
<stop offset="0.580917" stop-color="#B5179E"/>
<stop offset="1" stop-color="#7209B7"/>
</linearGradient>
</defs>
</svg>
